<?xml version="1.0" encoding="UTF-8" standalone="no"?>
<svg version="1.1" xmlns="http://www.w3.org/2000/svg" xmlns:xlink="http://www.w3.org/1999/xlink" xmlns:i="http://ns.adobe.com/AdobeIllustrator/10.0/" width="349.44" height="488.96">
	<g id="dp_dp001" transform="matrix(1,0,0,1,-411.261,-37.7347)">
		<path id="dp_path002" fill="none" stroke="black" stroke-width="2" stroke-linejoin="round" stroke-linecap="round" d="M 614.215,480.849 C 611.115,487.111 602.365,487.643 598.335,492.281 C 594.932,495.913 590.681,498.537 590.136,508.14 C 599.305,507.596 612.509,502.192 623.895,502.824 C 631.219,502.944 649.008,509.625 655.285,513.549 C 658.948,516.165 663.919,521.659 667.581,523.229 C 673.859,525.845 675.168,522.444 674.383,516.951 C 674.383,515.904 673.336,511.456 674.383,510.672 C 674.905,509.103 678.045,512.241 678.829,512.764 C 681.707,514.859 688.248,520.875 692.172,519.305 C 696.357,517.736 692.172,509.625 692.957,507.011 C 693.741,504.917 699.235,510.935 702.373,507.011 C 704.465,504.132 702.373,499.423 701.067,496.545 C 696.881,488.175 694.788,482.941 685.109,482.681 C 674.384,482.157 664.181,483.727 653.717,484.512 C 644.821,485.036 645.505,479.153 646.131,471.432 C 646.365,468.635 648.653,465.107 647.251,462.961 C 644.633,460.689 616.932,459.865 614.065,462.385 C 611.572,464.876 618.877,472.923 614.215,480.849M 529.092,463.593 C 524.172,467.229 528.357,472.761 526.317,479.281 C 525.72,481.828 526.317,484.252 524.225,486.081 C 521.085,488.176 514.285,486.867 510.884,486.081 C 504.868,485.559 494.925,485.559 488.909,486.081 C 479.151,487.271 476.875,491.315 472.165,499.685 C 470.859,502.301 467.981,507.011 469.812,510.149 C 472.689,514.333 479.753,509.625 480.539,510.149 C 481.584,510.409 480.539,513.288 480.539,514.073 C 480.015,516.689 478.184,522.444 482.893,522.705 C 488.909,522.967 497.804,511.98 499.896,511.98 C 500.419,511.98 499.896,515.119 499.896,515.643 C 499.896,518.52 498.849,525.845 503.297,525.845 C 507.221,525.845 515.069,518.52 518.731,515.904 C 523.963,511.98 535.789,506.933 542.275,504.917 C 558.405,499.384 572.516,505.761 585.788,508.219 C 586.733,501.439 581.012,496.983 578.564,493.664 C 573.589,487.793 561.332,488.377 559.279,485.821 C 557.761,484.201 557.789,480.059 557.972,477.711 C 558.575,469.929 560.295,463.701 558.573,461.855 C 556.324,461.665 536.567,461.151 529.092,463.593"/>
		<path id="dp_path003" fill="#9e602f" fill-rule="evenodd" stroke="black" stroke-width="2" stroke-linejoin="round" stroke-linecap="round" d="M 614.065,462.385 C 611.572,464.876 618.877,472.923 614.215,480.849 C 611.115,487.111 602.365,487.643 598.335,492.281 C 594.932,495.913 590.681,498.537 590.136,508.14 C 599.305,507.596 612.509,502.192 623.895,502.824 C 631.219,502.944 649.008,509.625 655.285,513.549 C 658.948,516.165 663.919,521.659 667.581,523.229 C 673.859,525.845 675.168,522.444 674.383,516.951 C 674.383,515.904 673.336,511.456 674.383,510.672 C 674.905,509.103 678.045,512.241 678.829,512.764 C 681.707,514.859 688.248,520.875 692.172,519.305 C 696.357,517.736 692.172,509.625 692.957,507.011 C 693.741,504.917 699.235,510.935 702.373,507.011 C 704.465,504.132 702.373,499.423 701.067,496.545 C 696.881,488.175 694.788,482.941 685.109,482.681 C 674.384,482.157 664.181,483.727 653.717,484.512 C 644.821,485.036 645.505,479.153 646.131,471.432 C 646.365,468.635 648.653,465.107 647.251,462.961 C 644.633,460.689 616.932,459.865 614.065,462.385 Z "/>
		<path id="dp_path004" fill="#ffaf13" fill-rule="evenodd" stroke="none" stroke-width="0" d="M 690.145,488.799 C 688.377,487.961 685.94,486.821 684.759,487.812 C 679.767,491.648 686.773,494.485 691.497,497.835 C 692.548,498.565 693.709,500.219 695.16,499.519 C 699.272,497.624 693.779,490.449 690.145,488.799 Z "/>
		<path id="dp_path005" fill="#9e602f" fill-rule="evenodd" stroke="black" stroke-width="2" stroke-linejoin="round" stroke-linecap="round" d="M 529.092,463.593 C 524.172,467.229 528.357,472.761 526.317,479.281 C 525.72,481.828 526.317,484.252 524.225,486.081 C 521.085,488.176 514.285,486.867 510.884,486.081 C 504.868,485.559 494.925,485.559 488.909,486.081 C 479.151,487.271 476.875,491.315 472.165,499.685 C 470.859,502.301 467.981,507.011 469.812,510.149 C 472.689,514.333 479.753,509.625 480.539,510.149 C 481.584,510.409 480.539,513.288 480.539,514.073 C 480.015,516.689 478.184,522.444 482.893,522.705 C 488.909,522.967 497.804,511.98 499.896,511.98 C 500.419,511.98 499.896,515.119 499.896,515.643 C 499.896,518.52 498.849,525.845 503.297,525.845 C 507.221,525.845 515.069,518.52 518.731,515.904 C 523.963,511.98 535.789,506.933 542.275,504.917 C 558.405,499.384 572.516,505.761 585.788,508.219 C 586.733,501.439 581.012,496.983 578.564,493.664 C 573.589,487.793 561.332,488.377 559.279,485.821 C 557.761,484.201 557.789,480.059 557.972,477.711 C 558.575,469.929 560.295,463.701 558.573,461.855 C 556.324,461.665 536.567,461.151 529.092,463.593 Z "/>
		<path id="dp_path006" fill="#ffaf13" fill-rule="evenodd" stroke="none" stroke-width="0" d="M 487.221,490.272 C 483.4,490.995 479.229,496.019 478.22,499.369 C 478.087,499.832 477.869,500.509 477.865,500.927 C 477.96,502.187 479.361,503.272 480.628,503.195 C 484.573,502.781 489.487,496.807 489.987,493.165 C 490.169,491.604 489.072,489.919 487.221,490.272 Z "/>
		<path id="dp_path007" fill="#ffaf13" fill-rule="evenodd" stroke="black" stroke-width="2" stroke-linejoin="round" stroke-linecap="round" d="M 534.949,470.385 C 536.259,470.125 539.136,470.125 540.705,470.385 C 542.537,469.863 547.507,469.863 549.339,470.385 C 554.569,473.787 548.031,487.651 555.093,492.1 C 557.971,493.929 562.417,493.144 565.557,494.191 C 570.005,495.237 572.097,498.639 568.436,499.163 C 565.297,499.423 558.233,496.545 551.693,497.069 C 540.183,498.116 528.672,501.517 518.731,507.011 C 516.9,508.056 509.052,513.812 507.744,513.288 C 506.697,513.027 507.528,506.761 509.837,503.871 C 512.453,500.793 520.429,494.716 523.909,493.339 C 528.696,491.837 531.921,492.085 533.38,488.175 C 534.537,485.076 531.811,472.48 534.949,470.385 Z "/>
		<path id="dp_path008" fill="#ffaf13" fill-rule="evenodd" stroke="black" stroke-width="2" stroke-linejoin="round" stroke-linecap="round" d="M 502.447,491.103 C 503.924,491.515 510.895,494.948 509.528,497.079 C 507.971,499.775 497.968,507.945 495.179,509.163 C 479.368,514.521 494.804,489.857 502.447,491.103 Z "/>
		<path id="dp_path009" fill="#ffaf13" fill-rule="evenodd" stroke="black" stroke-width="2" stroke-linejoin="round" stroke-linecap="round" d="M 638.301,469.385 C 641.812,472.232 641.084,483.479 640.579,487.056 C 640.171,490.735 646.883,490.749 649.843,491.703 C 652.893,492.687 658.352,491.521 660.397,493.384 C 667.083,501.192 670.368,504.388 668.073,513.88 C 662.327,513.573 657.345,507.076 655.285,505.179 C 645.249,498.299 632.789,496.545 620.755,496.545 C 612.645,496.808 612.645,497.069 605.059,499.423 C 604.273,499.423 601.093,500.48 600.873,499.423 C 599.021,495.325 613.041,490.596 614.985,489.001 C 622.661,482.14 617.689,471.569 622.844,468.705 C 624.287,467.821 629.793,469.541 631.761,469.385 C 633.611,469.433 636.917,468.161 638.301,469.385 Z "/>
		<path id="dp_path010" fill="#ffaf13" fill-rule="evenodd" stroke="black" stroke-width="2" stroke-linejoin="round" stroke-linecap="round" d="M 670.933,491.783 C 677.825,488.336 683.184,494.464 685.865,500.205 C 685.865,501.355 688.543,507.479 685.865,508.247 C 684.716,509.012 661.745,496.76 670.933,491.783 Z "/>
		<path id="dp_path011" fill="none" stroke="black" stroke-width="1" stroke-linejoin="round" d="M 489.987,493.165 C 490.169,491.604 489.072,489.919 487.221,490.272"/>
		<path id="dp_path012" fill="none" stroke="black" stroke-width="1" stroke-linejoin="round" d="M 487.221,490.272 C 483.4,490.995 479.229,496.019 478.22,499.369"/>
		<path id="dp_path013" fill="none" stroke="black" stroke-width="1" stroke-linejoin="round" d="M 478.22,499.369 C 478.087,499.832 477.869,500.509 477.865,500.927"/>
		<path id="dp_path014" fill="none" stroke="black" stroke-width="1" stroke-linejoin="round" d="M 477.865,500.927 C 477.96,502.187 479.361,503.272 480.628,503.195"/>
		<path id="dp_path015" fill="none" stroke="black" stroke-width="1" stroke-linejoin="round" d="M 480.628,503.195 C 484.573,502.781 489.487,496.807 489.987,493.165"/>
		<path id="dp_path016" fill="none" stroke="black" stroke-width="1" stroke-linejoin="round" d="M 558.573,461.855 C 556.324,461.665 536.567,461.151 529.092,463.593"/>
		<path id="dp_path017" fill="none" stroke="black" stroke-width="1" stroke-linejoin="round" d="M 529.092,463.593 C 524.172,467.229 528.357,472.761 526.317,479.281"/>
		<path id="dp_path018" fill="none" stroke="black" stroke-width="1" stroke-linejoin="round" d="M 526.317,479.281 C 525.72,481.828 526.317,484.252 524.225,486.081"/>
		<path id="dp_path019" fill="none" stroke="black" stroke-width="1" stroke-linejoin="round" d="M 524.225,486.081 C 521.085,488.176 514.285,486.867 510.884,486.081"/>
		<path id="dp_path020" fill="none" stroke="black" stroke-width="1" stroke-linejoin="round" d="M 510.884,486.081 C 504.868,485.559 494.925,485.559 488.909,486.081"/>
		<path id="dp_path021" fill="none" stroke="black" stroke-width="1" stroke-linejoin="round" d="M 488.909,486.081 C 479.151,487.271 476.875,491.315 472.165,499.685"/>
		<path id="dp_path022" fill="none" stroke="black" stroke-width="1" stroke-linejoin="round" d="M 472.165,499.685 C 470.859,502.301 467.981,507.011 469.812,510.149"/>
		<path id="dp_path023" fill="none" stroke="black" stroke-width="1" stroke-linejoin="round" d="M 469.812,510.149 C 472.689,514.333 479.753,509.625 480.539,510.149"/>
		<path id="dp_path024" fill="none" stroke="black" stroke-width="1" stroke-linejoin="round" d="M 480.539,510.149 C 481.584,510.409 480.539,513.288 480.539,514.073"/>
		<path id="dp_path025" fill="none" stroke="black" stroke-width="1" stroke-linejoin="round" d="M 480.539,514.073 C 480.015,516.689 478.184,522.444 482.893,522.705"/>
		<path id="dp_path026" fill="none" stroke="black" stroke-width="1" stroke-linejoin="round" d="M 482.893,522.705 C 488.909,522.967 497.804,511.98 499.896,511.98"/>
		<path id="dp_path027" fill="none" stroke="black" stroke-width="1" stroke-linejoin="round" d="M 499.896,511.98 C 500.419,511.98 499.896,515.119 499.896,515.643"/>
		<path id="dp_path028" fill="none" stroke="black" stroke-width="1" stroke-linejoin="round" d="M 499.896,515.643 C 499.896,518.52 498.849,525.845 503.297,525.845"/>
		<path id="dp_path029" fill="none" stroke="black" stroke-width="1" stroke-linejoin="round" d="M 503.297,525.845 C 507.221,525.845 515.069,518.52 518.731,515.904"/>
		<path id="dp_path030" fill="none" stroke="black" stroke-width="1" stroke-linejoin="round" d="M 518.731,515.904 C 523.963,511.98 535.789,506.933 542.275,504.917"/>
		<path id="dp_path031" fill="none" stroke="black" stroke-width="1" stroke-linejoin="round" d="M 542.275,504.917 C 558.405,499.384 572.516,505.761 585.788,508.219"/>
		<path id="dp_path032" fill="none" stroke="black" stroke-width="1" stroke-linejoin="round" d="M 585.788,508.219 C 586.733,501.439 581.012,496.983 578.564,493.664"/>
		<path id="dp_path033" fill="none" stroke="black" stroke-width="1" stroke-linejoin="round" d="M 578.564,493.664 C 573.589,487.793 561.332,488.377 559.279,485.821"/>
		<path id="dp_path034" fill="none" stroke="black" stroke-width="1" stroke-linejoin="round" d="M 559.279,485.821 C 557.761,484.201 557.789,480.059 557.972,477.711"/>
		<path id="dp_path035" fill="none" stroke="black" stroke-width="1" stroke-linejoin="round" d="M 557.972,477.711 C 558.575,469.929 560.295,463.701 558.573,461.855"/>
		<path id="dp_path036" fill="none" stroke="black" stroke-width="1" stroke-linejoin="round" d="M 495.179,509.163 C 479.368,514.521 494.804,489.857 502.447,491.103"/>
		<path id="dp_path037" fill="none" stroke="black" stroke-width="1" stroke-linejoin="round" d="M 502.447,491.103 C 503.924,491.515 510.895,494.948 509.528,497.079"/>
		<path id="dp_path038" fill="none" stroke="black" stroke-width="1" stroke-linejoin="round" d="M 509.528,497.079 C 507.971,499.775 497.968,507.945 495.179,509.163"/>
		<path id="dp_path039" fill="none" stroke="black" stroke-width="1" stroke-linejoin="round" d="M 533.38,488.175 C 534.537,485.076 531.811,472.48 534.949,470.385"/>
		<path id="dp_path040" fill="none" stroke="black" stroke-width="1" stroke-linejoin="round" d="M 534.949,470.385 C 536.259,470.125 539.136,470.125 540.705,470.385"/>
		<path id="dp_path041" fill="none" stroke="black" stroke-width="1" stroke-linejoin="round" d="M 540.705,470.385 C 542.537,469.863 547.507,469.863 549.339,470.385"/>
		<path id="dp_path042" fill="none" stroke="black" stroke-width="1" stroke-linejoin="round" d="M 549.339,470.385 C 554.569,473.787 548.031,487.651 555.093,492.1"/>
		<path id="dp_path043" fill="none" stroke="black" stroke-width="1" stroke-linejoin="round" d="M 555.093,492.1 C 557.971,493.929 562.417,493.144 565.557,494.191"/>
		<path id="dp_path044" fill="none" stroke="black" stroke-width="1" stroke-linejoin="round" d="M 565.557,494.191 C 570.005,495.237 572.097,498.639 568.436,499.163"/>
		<path id="dp_path045" fill="none" stroke="black" stroke-width="1" stroke-linejoin="round" d="M 568.436,499.163 C 565.297,499.423 558.233,496.545 551.693,497.069"/>
		<path id="dp_path046" fill="none" stroke="black" stroke-width="1" stroke-linejoin="round" d="M 551.693,497.069 C 540.183,498.116 528.672,501.517 518.731,507.011"/>
		<path id="dp_path047" fill="none" stroke="black" stroke-width="1" stroke-linejoin="round" d="M 518.731,507.011 C 516.9,508.056 509.052,513.812 507.744,513.288"/>
		<path id="dp_path048" fill="none" stroke="black" stroke-width="1" stroke-linejoin="round" d="M 507.744,513.288 C 506.697,513.027 507.528,506.761 509.837,503.871"/>
		<path id="dp_path049" fill="none" stroke="black" stroke-width="1" stroke-linejoin="round" d="M 509.837,503.871 C 512.453,500.793 520.429,494.716 523.909,493.339"/>
		<path id="dp_path050" fill="none" stroke="black" stroke-width="1" stroke-linejoin="round" d="M 523.909,493.339 C 528.696,491.837 531.921,492.085 533.38,488.175"/>
		<path id="dp_path051" fill="black" fill-rule="evenodd" stroke="black" stroke-width="2" stroke-linejoin="round" stroke-linecap="round" d="M 489.987,493.165 C 490.169,491.604 489.072,489.919 487.221,490.272 C 483.4,490.995 479.229,496.019 478.22,499.369 C 478.087,499.832 477.869,500.509 477.865,500.927 C 477.96,502.187 479.361,503.272 480.628,503.195 C 484.573,502.781 489.487,496.807 489.987,493.165 Z M 558.573,461.855 C 556.324,461.665 536.567,461.151 529.092,463.593 C 524.172,467.229 528.357,472.761 526.317,479.281 C 525.72,481.828 526.317,484.252 524.225,486.081 C 521.085,488.176 514.285,486.867 510.884,486.081 C 504.868,485.559 494.925,485.559 488.909,486.081 C 479.151,487.271 476.875,491.315 472.165,499.685 C 470.859,502.301 467.981,507.011 469.812,510.149 C 472.689,514.333 479.753,509.625 480.539,510.149 C 481.584,510.409 480.539,513.288 480.539,514.073 C 480.015,516.689 478.184,522.444 482.893,522.705 C 488.909,522.967 497.804,511.98 499.896,511.98 C 500.419,511.98 499.896,515.119 499.896,515.643 C 499.896,518.52 498.849,525.845 503.297,525.845 C 507.221,525.845 515.069,518.52 518.731,515.904 C 523.963,511.98 535.789,506.933 542.275,504.917 C 558.405,499.384 572.516,505.761 585.788,508.219 C 586.733,501.439 581.012,496.983 578.564,493.664 C 573.589,487.793 561.332,488.377 559.279,485.821 C 557.761,484.201 557.789,480.059 557.972,477.711 C 558.575,469.929 560.295,463.701 558.573,461.855 Z M 495.179,509.163 C 479.368,514.521 494.804,489.857 502.447,491.103 C 503.924,491.515 510.895,494.948 509.528,497.079 C 507.971,499.775 497.968,507.945 495.179,509.163 Z M 533.38,488.175 C 534.537,485.076 531.811,472.48 534.949,470.385 C 536.259,470.125 539.136,470.125 540.705,470.385 C 542.537,469.863 547.507,469.863 549.339,470.385 C 554.569,473.787 548.031,487.651 555.093,492.1 C 557.971,493.929 562.417,493.144 565.557,494.191 C 570.005,495.237 572.097,498.639 568.436,499.163 C 565.297,499.423 558.233,496.545 551.693,497.069 C 540.183,498.116 528.672,501.517 518.731,507.011 C 516.9,508.056 509.052,513.812 507.744,513.288 C 506.697,513.027 507.528,506.761 509.837,503.871 C 512.453,500.793 520.429,494.716 523.909,493.339 C 528.696,491.837 531.921,492.085 533.38,488.175 Z "/>
		<path id="dp_path052" fill="none" stroke="black" stroke-width="1" stroke-linejoin="round" d="M 690.145,488.799 C 688.377,487.961 685.94,486.821 684.759,487.812"/>
		<path id="dp_path053" fill="none" stroke="black" stroke-width="1" stroke-linejoin="round" d="M 684.759,487.812 C 679.767,491.648 686.773,494.485 691.497,497.835"/>
		<path id="dp_path054" fill="none" stroke="black" stroke-width="1" stroke-linejoin="round" d="M 691.497,497.835 C 692.548,498.565 693.709,500.219 695.16,499.519"/>
		<path id="dp_path055" fill="none" stroke="black" stroke-width="1" stroke-linejoin="round" d="M 695.16,499.519 C 699.272,497.624 693.779,490.449 690.145,488.799"/>
		<path id="dp_path056" fill="none" stroke="black" stroke-width="1" stroke-linejoin="round" d="M 614.065,462.385 C 611.572,464.876 618.877,472.923 614.215,480.849"/>
		<path id="dp_path057" fill="none" stroke="black" stroke-width="1" stroke-linejoin="round" d="M 614.215,480.849 C 611.115,487.111 602.365,487.643 598.335,492.281"/>
		<path id="dp_path058" fill="none" stroke="black" stroke-width="1" stroke-linejoin="round" d="M 598.335,492.281 C 594.932,495.913 590.681,498.537 590.136,508.14"/>
		<path id="dp_path059" fill="none" stroke="black" stroke-width="1" stroke-linejoin="round" d="M 590.136,508.14 C 599.305,507.596 612.509,502.192 623.895,502.824"/>
		<path id="dp_path060" fill="none" stroke="black" stroke-width="1" stroke-linejoin="round" d="M 623.895,502.824 C 631.219,502.944 649.008,509.625 655.285,513.549"/>
		<path id="dp_path061" fill="none" stroke="black" stroke-width="1" stroke-linejoin="round" d="M 655.285,513.549 C 658.948,516.165 663.919,521.659 667.581,523.229"/>
		<path id="dp_path062" fill="none" stroke="black" stroke-width="1" stroke-linejoin="round" d="M 667.581,523.229 C 673.859,525.845 675.168,522.444 674.383,516.951"/>
		<path id="dp_path063" fill="none" stroke="black" stroke-width="1" stroke-linejoin="round" d="M 674.383,516.951 C 674.383,515.904 673.336,511.456 674.383,510.672"/>
		<path id="dp_path064" fill="none" stroke="black" stroke-width="1" stroke-linejoin="round" d="M 674.383,510.672 C 674.905,509.103 678.045,512.241 678.829,512.764"/>
		<path id="dp_path065" fill="none" stroke="black" stroke-width="1" stroke-linejoin="round" d="M 678.829,512.764 C 681.707,514.859 688.248,520.875 692.172,519.305"/>
		<path id="dp_path066" fill="none" stroke="black" stroke-width="1" stroke-linejoin="round" d="M 692.172,519.305 C 696.357,517.736 692.172,509.625 692.957,507.011"/>
		<path id="dp_path067" fill="none" stroke="black" stroke-width="1" stroke-linejoin="round" d="M 692.957,507.011 C 693.741,504.917 699.235,510.935 702.373,507.011"/>
		<path id="dp_path068" fill="none" stroke="black" stroke-width="1" stroke-linejoin="round" d="M 702.373,507.011 C 704.465,504.132 702.373,499.423 701.067,496.545"/>
		<path id="dp_path069" fill="none" stroke="black" stroke-width="1" stroke-linejoin="round" d="M 701.067,496.545 C 696.881,488.175 694.788,482.941 685.109,482.681"/>
		<path id="dp_path070" fill="none" stroke="black" stroke-width="1" stroke-linejoin="round" d="M 685.109,482.681 C 674.384,482.157 664.181,483.727 653.717,484.512"/>
		<path id="dp_path071" fill="none" stroke="black" stroke-width="1" stroke-linejoin="round" d="M 653.717,484.512 C 644.821,485.036 645.505,479.153 646.131,471.432"/>
		<path id="dp_path072" fill="none" stroke="black" stroke-width="1" stroke-linejoin="round" d="M 646.131,471.432 C 646.365,468.635 648.653,465.107 647.251,462.961"/>
		<path id="dp_path073" fill="none" stroke="black" stroke-width="1" stroke-linejoin="round" d="M 647.251,462.961 C 644.633,460.689 616.932,459.865 614.065,462.385"/>
		<path id="dp_path074" fill="none" stroke="black" stroke-width="1" stroke-linejoin="round" d="M 670.933,491.783 C 677.825,488.336 683.184,494.464 685.865,500.205"/>
		<path id="dp_path075" fill="none" stroke="black" stroke-width="1" stroke-linejoin="round" d="M 685.865,500.205 C 685.865,501.355 688.543,507.479 685.865,508.247"/>
		<path id="dp_path076" fill="none" stroke="black" stroke-width="1" stroke-linejoin="round" d="M 685.865,508.247 C 684.716,509.012 661.745,496.76 670.933,491.783"/>
		<path id="dp_path077" fill="none" stroke="black" stroke-width="1" stroke-linejoin="round" d="M 631.761,469.385 C 633.611,469.433 636.917,468.161 638.301,469.385"/>
		<path id="dp_path078" fill="none" stroke="black" stroke-width="1" stroke-linejoin="round" d="M 638.301,469.385 C 641.812,472.232 641.084,483.479 640.579,487.056"/>
		<path id="dp_path079" fill="none" stroke="black" stroke-width="1" stroke-linejoin="round" d="M 640.579,487.056 C 640.171,490.735 646.883,490.749 649.843,491.703"/>
		<path id="dp_path080" fill="none" stroke="black" stroke-width="1" stroke-linejoin="round" d="M 649.843,491.703 C 652.893,492.687 658.352,491.521 660.397,493.384"/>
		<path id="dp_path081" fill="none" stroke="black" stroke-width="1" stroke-linejoin="round" d="M 660.397,493.384 C 667.083,501.192 670.368,504.388 668.073,513.88"/>
		<path id="dp_path082" fill="none" stroke="black" stroke-width="1" stroke-linejoin="round" d="M 668.073,513.88 C 662.327,513.573 657.345,507.076 655.285,505.179"/>
		<path id="dp_path083" fill="none" stroke="black" stroke-width="1" stroke-linejoin="round" d="M 655.285,505.179 C 645.249,498.299 632.789,496.545 620.755,496.545"/>
		<path id="dp_path084" fill="none" stroke="black" stroke-width="1" stroke-linejoin="round" d="M 620.755,496.545 C 612.645,496.808 612.645,497.069 605.059,499.423"/>
		<path id="dp_path085" fill="none" stroke="black" stroke-width="1" stroke-linejoin="round" d="M 605.059,499.423 C 604.273,499.423 601.093,500.48 600.873,499.423"/>
		<path id="dp_path086" fill="none" stroke="black" stroke-width="1" stroke-linejoin="round" d="M 600.873,499.423 C 599.021,495.325 613.041,490.596 614.985,489.001"/>
		<path id="dp_path087" fill="none" stroke="black" stroke-width="1" stroke-linejoin="round" d="M 614.985,489.001 C 622.661,482.14 617.689,471.569 622.844,468.705"/>
		<path id="dp_path088" fill="none" stroke="black" stroke-width="1" stroke-linejoin="round" d="M 622.844,468.705 C 624.287,467.821 629.793,469.541 631.761,469.385"/>
		<path id="dp_path089" fill="black" fill-rule="evenodd" stroke="black" stroke-width="2" stroke-linejoin="round" stroke-linecap="round" d="M 690.145,488.799 C 688.377,487.961 685.94,486.821 684.759,487.812 C 679.767,491.648 686.773,494.485 691.497,497.835 C 692.548,498.565 693.709,500.219 695.16,499.519 C 699.272,497.624 693.779,490.449 690.145,488.799 Z M 614.065,462.385 C 611.572,464.876 618.877,472.923 614.215,480.849 C 611.115,487.111 602.365,487.643 598.335,492.281 C 594.932,495.913 590.681,498.537 590.136,508.14 C 599.305,507.596 612.509,502.192 623.895,502.824 C 631.219,502.944 649.008,509.625 655.285,513.549 C 658.948,516.165 663.919,521.659 667.581,523.229 C 673.859,525.845 675.168,522.444 674.383,516.951 C 674.383,515.904 673.336,511.456 674.383,510.672 C 674.905,509.103 678.045,512.241 678.829,512.764 C 681.707,514.859 688.248,520.875 692.172,519.305 C 696.357,517.736 692.172,509.625 692.957,507.011 C 693.741,504.917 699.235,510.935 702.373,507.011 C 704.465,504.132 702.373,499.423 701.067,496.545 C 696.881,488.175 694.788,482.941 685.109,482.681 C 674.384,482.157 664.181,483.727 653.717,484.512 C 644.821,485.036 645.505,479.153 646.131,471.432 C 646.365,468.635 648.653,465.107 647.251,462.961 C 644.633,460.689 616.932,459.865 614.065,462.385 Z M 670.933,491.783 C 677.825,488.336 683.184,494.464 685.865,500.205 C 685.865,501.355 688.543,507.479 685.865,508.247 C 684.716,509.012 661.745,496.76 670.933,491.783 Z M 631.761,469.385 C 633.611,469.433 636.917,468.161 638.301,469.385 C 641.812,472.232 641.084,483.479 640.579,487.056 C 640.171,490.735 646.883,490.749 649.843,491.703 C 652.893,492.687 658.352,491.521 660.397,493.384 C 667.083,501.192 670.368,504.388 668.073,513.88 C 662.327,513.573 657.345,507.076 655.285,505.179 C 645.249,498.299 632.789,496.545 620.755,496.545 C 612.645,496.808 612.645,497.069 605.059,499.423 C 604.273,499.423 601.093,500.48 600.873,499.423 C 599.021,495.325 613.041,490.596 614.985,489.001 C 622.661,482.14 617.689,471.569 622.844,468.705 C 624.287,467.821 629.793,469.541 631.761,469.385 Z "/>
		<path id="dp_path090" fill="black" fill-rule="evenodd" stroke="black" stroke-width="2" stroke-linejoin="round" stroke-linecap="round" d="M 646.965,473.217 C 648.921,471.184 650.961,462.788 652.409,457.305 C 655.555,446.419 660.089,434.413 663.397,424.607 C 664.884,420.195 667.117,414.391 668.369,409.907 C 673.745,390.637 676.512,363.881 681.787,344.584 C 686.907,325.856 698.741,307.361 702.801,283.373 C 705.243,268.959 707.428,253.936 707.439,238.236 C 706.788,232.28 705.443,223.695 705.064,217.421 C 704.713,211.617 705.211,201.577 704.909,198.04 C 702.785,179.208 697.449,160.025 686.339,150.545 C 664.992,132.331 618.935,113.713 587.36,114.624 C 556.36,115.519 512.933,132.125 492.323,155.299 C 485.296,163.2 480.383,179.849 479.575,188.157 C 479.192,192.103 480.249,201.389 479.491,206.988 C 478.536,214.045 473.955,223.499 473.137,229.863 C 469.731,248.289 470.233,264.249 474.227,282.415 C 478.645,302.513 484.736,315.396 488.599,336.019 C 492.736,358.1 497.581,383.883 502.632,404.121 C 506.537,419.772 512.825,429.984 517.685,455.737 C 518.881,462.079 521.015,467.255 525.041,469.793 C 529.019,472.301 536.012,470.097 540.705,470.385 C 546.408,470.735 556.513,474.601 559.679,472.011 C 564.331,468.204 557.669,464.448 578.376,464.107 C 583.893,464.017 586.669,464.473 590.933,465.153 C 615.816,469.129 612.413,473.357 613.849,474.995 C 616.113,477.573 626.18,473.796 631.481,473.525 C 636.121,473.287 645.833,474.396 646.965,473.217 Z "/>
		<path id="dp_path091" fill="#9c602e" fill-rule="evenodd" stroke="black" stroke-width="2" stroke-linejoin="round" stroke-linecap="round" d="M 681.844,160.041 C 694.576,172.341 692.113,200.073 695.513,217.445 C 696.74,223.712 700.128,230.396 698.897,238.456 C 696.871,252.777 696.827,267.017 695.215,281.221 C 692.36,304.159 680.721,319.671 675.032,341.508 C 671.068,357.049 662.765,399.5 660.78,408.649 C 659.957,413.315 655.293,422.605 653.979,427.484 C 646.413,455.571 651.977,466.432 628.603,466.724 C 617.047,466.867 613.169,463.061 603.489,460.445 C 600.612,459.661 589.101,457.829 586.224,457.569 C 579.161,457.044 569.481,458.353 562.68,459.66 C 550.385,462.015 535.212,469.077 525.795,455.737 C 523.177,452.075 518.209,432.193 515.855,425.913 C 514.023,420.421 509.364,409.348 508.267,403.94 C 506.665,396.485 497.173,349.183 494.787,335.155 C 491.669,317.385 483.265,297.08 481.631,278.852 C 480.235,261.941 478.412,247.811 480.501,230.599 C 481.773,220.117 487.793,216.583 489.021,210.013 C 490.243,203.483 487.559,194.755 488.521,187.875 C 489.803,177.333 494.587,166.225 500.924,159.391 C 520.076,138.735 558.997,122.724 587.161,122.249 C 617.741,121.733 659.888,138.832 681.844,160.041 Z "/>
		<path id="dp_path092" fill="none" stroke="black" stroke-width="2" stroke-linejoin="round" stroke-linecap="round" d="M 502.632,404.121 C 506.537,419.772 512.825,429.984 517.685,455.737 C 518.881,462.079 521.015,467.255 525.041,469.793M 704.909,198.04 C 702.785,179.208 697.449,160.025 686.339,150.545 C 664.992,132.331 618.935,113.713 587.36,114.624 C 556.36,115.519 512.933,132.125 492.323,155.299 C 485.296,163.2 480.383,179.849 479.575,188.157 C 479.192,192.103 480.249,201.389 479.491,206.988M 705.064,217.421 C 704.713,211.617 705.211,201.577 704.909,198.04M 663.397,424.607 C 664.884,420.195 667.117,414.391 668.369,409.907M 652.409,457.305 C 655.555,446.419 660.089,434.413 663.397,424.607M 646.965,473.217 C 648.921,471.184 650.961,462.788 652.409,457.305"/>
		<path id="dp_path093" fill="#9e602f" fill-rule="evenodd" stroke="black" stroke-width="2" stroke-linejoin="round" stroke-linecap="round" d="M 666.5,420.067 C 668.373,423.341 671.509,428.569 673.337,430.623 C 678.148,436.028 685.893,438.471 692.695,435.593 C 699.235,432.977 706.036,422.252 710.484,416.496 C 720.947,403.417 732.719,390.861 744.753,378.827 C 749.984,373.595 759.141,366.793 759.925,358.684 C 760.187,356.852 760.187,351.881 758.879,350.573 C 756.525,348.22 741.091,350.051 739.781,344.033 C 739.26,342.203 740.829,336.969 741.091,334.877 C 742.137,328.6 742.921,322.583 743.184,316.043 C 743.184,300.869 742.136,287.005 737.689,272.093 C 734.028,259.537 725.309,245.285 718.855,234.424 C 715.797,229.277 711.924,222.089 707.605,217.943 C 706.377,216.764 704.617,214.857 702.919,214.737 C 691.963,217.912 672.393,239.373 666.273,245.411 C 647.809,263.629 639.589,291.976 639.589,317.612 C 639.328,341.941 644.299,360.776 651.1,383.535 C 652.932,389.552 657.489,401.275 660.78,408.649 C 662.341,412.148 664.597,416.741 666.5,420.067 Z "/>
		<path id="dp_path094" fill="black" fill-rule="evenodd" stroke="black" stroke-width="2" stroke-linejoin="round" stroke-linecap="round" d="M 508.267,403.94 C 512.227,396.208 517.424,382.749 519.516,377.257 C 526.579,358.421 533.905,334.877 534.165,314.473 C 534.689,288.052 528.933,264.245 513.237,242.272 C 501.465,225.791 494.3,218.439 483.416,211.664 C 481.209,210.291 476.715,208.551 475.348,208.513 C 468.465,211.428 463.98,218.101 458.825,223.436 C 449.321,234.239 441.037,250.905 436.589,264.245 C 431.619,279.941 430.572,293.805 430.833,309.765 C 430.835,314.735 433.451,333.045 433.189,334.616 C 432.404,337.495 428.741,336.709 426.387,337.232 C 418.54,338.801 412.261,335.925 412.261,345.341 C 411.999,357.637 419.585,361.299 427.695,369.409 C 438.944,381.181 449.932,394.26 459.872,407.079 C 463.533,412.049 471.121,424.345 476.352,426.437 C 483.416,429.576 493.405,427.789 497.28,421.205 C 498.676,418.993 501.561,415.079 503.276,412.373 C 504.851,409.891 506.927,406.557 508.267,403.94 Z "/>
		<path id="dp_path095" fill="#9e602f" fill-rule="evenodd" stroke="black" stroke-width="2" stroke-linejoin="round" stroke-linecap="round" d="M 476.352,217.681 C 479.492,217.681 483.416,221.605 485.769,223.436 C 493.88,230.5 500.159,236.777 506.437,245.411 C 535.997,285.957 530.241,332.261 512.191,375.687 C 507.481,387.197 501.204,399.493 495.188,410.217 C 492.833,414.404 489.693,420.683 484.2,420.683 C 480.539,420.683 476.089,416.759 473.213,414.665 C 467.197,409.696 468.505,407.079 464.317,400.801 C 460.657,395.569 454.901,388.767 450.453,383.535 C 448.361,381.181 440.775,373.856 442.084,370.456 C 442.868,368.361 445.745,369.409 447.053,370.456 C 449.669,372.548 452.024,379.088 454.901,381.181 C 456.733,382.488 459.349,382.751 460.133,380.133 C 460.919,377.257 451.761,362.345 449.932,358.421 C 443.653,344.557 437.375,325.197 437.113,309.765 C 436.589,280.465 443.391,260.584 459.609,235.993 C 462.225,231.807 470.859,217.421 476.352,217.681 Z "/>
		<path id="dp_path096" fill="none" stroke="black" stroke-width="1" stroke-linejoin="round" d="M 660.78,408.649 C 662.341,412.148 664.597,416.741 666.5,420.067"/>
		<path id="dp_path097" fill="none" stroke="black" stroke-width="1" stroke-linejoin="round" d="M 666.5,420.067 C 668.373,423.341 671.509,428.569 673.337,430.623"/>
		<path id="dp_path098" fill="none" stroke="black" stroke-width="1" stroke-linejoin="round" d="M 673.337,430.623 C 678.148,436.028 685.893,438.471 692.695,435.593"/>
		<path id="dp_path099" fill="none" stroke="black" stroke-width="1" stroke-linejoin="round" d="M 692.695,435.593 C 699.235,432.977 706.036,422.252 710.484,416.496"/>
		<path id="dp_path100" fill="none" stroke="black" stroke-width="1" stroke-linejoin="round" d="M 710.484,416.496 C 720.947,403.417 732.719,390.861 744.753,378.827"/>
		<path id="dp_path101" fill="none" stroke="black" stroke-width="1" stroke-linejoin="round" d="M 744.753,378.827 C 749.984,373.595 759.141,366.793 759.925,358.684"/>
		<path id="dp_path102" fill="none" stroke="black" stroke-width="1" stroke-linejoin="round" d="M 759.925,358.684 C 760.187,356.852 760.187,351.881 758.879,350.573"/>
		<path id="dp_path103" fill="none" stroke="black" stroke-width="1" stroke-linejoin="round" d="M 758.879,350.573 C 756.525,348.22 741.091,350.051 739.781,344.033"/>
		<path id="dp_path104" fill="none" stroke="black" stroke-width="1" stroke-linejoin="round" d="M 739.781,344.033 C 739.26,342.203 740.829,336.969 741.091,334.877"/>
		<path id="dp_path105" fill="none" stroke="black" stroke-width="1" stroke-linejoin="round" d="M 741.091,334.877 C 742.137,328.6 742.921,322.583 743.184,316.043"/>
		<path id="dp_path106" fill="none" stroke="black" stroke-width="1" stroke-linejoin="round" d="M 743.184,316.043 C 743.184,300.869 742.136,287.005 737.689,272.093"/>
		<path id="dp_path107" fill="none" stroke="black" stroke-width="1" stroke-linejoin="round" d="M 737.689,272.093 C 734.028,259.537 725.309,245.285 718.855,234.424"/>
		<path id="dp_path108" fill="none" stroke="black" stroke-width="1" stroke-linejoin="round" d="M 718.855,234.424 C 715.797,229.277 711.924,222.089 707.605,217.943"/>
		<path id="dp_path109" fill="none" stroke="black" stroke-width="1" stroke-linejoin="round" d="M 707.605,217.943 C 706.377,216.764 704.617,214.857 702.919,214.737"/>
		<path id="dp_path110" fill="none" stroke="black" stroke-width="1" stroke-linejoin="round" d="M 702.919,214.737 C 691.963,217.912 672.393,239.373 666.273,245.411"/>
		<path id="dp_path111" fill="none" stroke="black" stroke-width="1" stroke-linejoin="round" d="M 666.273,245.411 C 647.809,263.629 639.589,291.976 639.589,317.612"/>
		<path id="dp_path112" fill="none" stroke="black" stroke-width="1" stroke-linejoin="round" d="M 639.589,317.612 C 639.328,341.941 644.299,360.776 651.1,383.535"/>
		<path id="dp_path113" fill="none" stroke="black" stroke-width="1" stroke-linejoin="round" d="M 651.1,383.535 C 652.932,389.552 657.489,401.275 660.78,408.649"/>
		<path id="dp_path114" fill="black" fill-rule="evenodd" stroke="black" stroke-width="2" stroke-linejoin="round" stroke-linecap="round" d="M 660.78,408.649 C 662.341,412.148 664.597,416.741 666.5,420.067 C 668.373,423.341 671.509,428.569 673.337,430.623 C 678.148,436.028 685.893,438.471 692.695,435.593 C 699.235,432.977 706.036,422.252 710.484,416.496 C 720.947,403.417 732.719,390.861 744.753,378.827 C 749.984,373.595 759.141,366.793 759.925,358.684 C 760.187,356.852 760.187,351.881 758.879,350.573 C 756.525,348.22 741.091,350.051 739.781,344.033 C 739.26,342.203 740.829,336.969 741.091,334.877 C 742.137,328.6 742.921,322.583 743.184,316.043 C 743.184,300.869 742.136,287.005 737.689,272.093 C 734.028,259.537 725.309,245.285 718.855,234.424 C 715.797,229.277 711.924,222.089 707.605,217.943 C 706.377,216.764 704.617,214.857 702.919,214.737 C 691.963,217.912 672.393,239.373 666.273,245.411 C 647.809,263.629 639.589,291.976 639.589,317.612 C 639.328,341.941 644.299,360.776 651.1,383.535 C 652.932,389.552 657.489,401.275 660.78,408.649 Z M 732.457,365.223 C 733.504,364.437 738.475,360.513 739.26,361.823 C 740.044,363.129 733.765,368.101 732.457,367.577 C 731.412,367.053 732.719,365.485 732.457,365.223 Z M 691.387,231.808 C 694.004,229.715 698.449,226.053 702.112,227.097 C 706.821,228.407 717.548,246.719 720.425,251.689 C 738.736,283.865 741.876,317.613 728.795,352.144 C 725.396,361.561 720.687,370.456 715.716,378.827 C 714.145,381.704 710.484,386.412 711.269,389.551 C 711.791,392.168 714.145,391.905 715.977,390.597 C 719.377,388.244 721.471,381.965 724.611,379.873 C 727.225,378.304 730.365,378.825 729.841,381.181 C 729.58,383.012 721.209,392.691 719.377,394.523 C 714.145,400.277 708.915,405.509 704.729,411.788 C 700.281,418.589 696.617,426.177 688.248,428.792 C 682.492,430.623 678.568,425.652 675.953,421.205 C 672.552,415.189 663.133,394 660.257,386.675 C 642.991,343.249 638.02,294.329 668.105,254.828 C 674.905,245.933 682.232,238.609 691.387,231.808 Z "/>
		<path id="dp_path115" fill="#9e602f" fill-rule="evenodd" stroke="black" stroke-width="2" stroke-linejoin="round" stroke-linecap="round" d="M 431.881,350.573 C 434.236,350.836 437.636,353.713 439.729,355.545 C 439.467,355.805 440.775,357.637 439.729,357.899 C 438.683,358.684 433.712,353.975 432.665,353.189 C 432.665,352.928 430.049,350.573 431.881,350.573 Z "/>
		<path id="dp_path116" fill="#9e602f" fill-rule="evenodd" stroke="black" stroke-opacity="0" stroke-width="2" stroke-linejoin="round" stroke-linecap="round" d="M 699.824,218.241 C 705.121,214.307 708.251,207.736 710.997,199.293 C 717.889,178.759 718.339,160.264 711.037,140.015 C 709.611,135.849 702.885,123.395 702.709,120.605 C 702.513,114.18 711.823,108.841 716.343,104.372 C 725.88,94.944 732.581,83.3307 737.821,70.636 C 738.64,68.7053 742.945,56.1813 740.815,54.9587 C 739.149,53.9387 735.68,57.1533 734.329,57.9733 C 729.457,61.808 724.877,66.2053 720.001,69.7653 C 701.945,82.304 679.759,87.836 658.391,87.2867 C 646.225,87.2813 635.699,82.8693 624.353,80.128 C 611.392,77.1093 598.425,75.7 585.453,74.3373 C 577.076,73.7893 567.62,75.9787 559.513,77.064 C 548.167,78.6907 538.169,79.26 527.093,78.9627 C 509.235,78.6493 491.125,72.3 476.852,62.4613 C 472.521,59.7133 457.427,45.4333 454.709,45.1573 C 451.419,44.328 453.109,51.1893 453.353,52.5653 C 454.524,59.7853 456.163,67.0733 458.353,73.6427 C 460.668,81.268 463.001,89.1347 467.893,95.188 C 470.857,98.9173 476.921,102.539 477.632,106.921 C 478.227,110.165 470.056,128.325 468.697,133.261 C 464.337,146.717 463.535,162.344 465.965,176.071 C 467.857,185.939 470.088,194.469 475.405,202.424 C 477.052,204.985 479.055,208.359 481.444,210.025 C 506.628,227.593 551.136,228.577 581.803,230.137 C 617.343,231.948 671.255,239.457 699.824,218.241 Z "/>
		<path id="dp_path117" fill="black" fill-rule="evenodd" stroke="black" stroke-width="2" stroke-linejoin="round" stroke-linecap="round" d="M 697.061,216.392 C 696.297,213.475 705.215,206.396 707.868,198.323 C 714.497,178.769 714.669,161.175 707.868,141.817 C 706.297,137.109 698.973,122.981 698.712,119.843 C 698.449,114.612 704.991,109.379 708.653,105.717 C 717.548,96.8213 725.133,87.144 731.411,75.8947 C 732.457,74.0627 738.736,62.0307 736.643,60.7213 C 735.073,59.676 731.673,62.8147 730.365,63.6 C 725.656,67.2613 721.209,71.448 716.5,74.848 C 698.973,86.8813 677.523,92.1133 656.856,91.5907 C 645.084,91.5907 634.881,87.4053 623.895,84.7893 C 611.337,81.9107 598.781,80.604 586.224,79.296 C 578.113,78.772 568.957,80.8653 561.109,81.9107 C 550.123,83.48 540.444,84.004 529.719,83.7427 C 512.453,83.48 494.925,77.4653 481.061,68.0467 C 476.875,65.4293 462.225,51.828 459.609,51.5653 C 456.471,50.7813 458.04,57.3213 458.301,58.6293 C 459.609,65.692 461.703,72.756 464.317,79.0333 C 466.935,85.8347 470.597,92.1133 474.783,97.8693 C 477.4,101.531 481.584,106.24 481.845,110.425 C 482.109,113.565 474.521,130.831 473.213,135.539 C 469.027,148.357 468.241,163.269 470.597,176.349 C 472.428,185.765 474.621,193.901 479.753,201.461 C 481.351,203.908 485.28,206.339 485.605,208.704 C 485.996,211.539 478.535,213.717 476.54,211.289 C 474.736,208.453 469.128,196.201 467.457,192.044 C 464.376,184.368 461.703,165.884 462.225,157.513 C 462.749,149.143 465.628,134.493 468.505,126.121 C 469.812,121.936 474.26,114.873 473.476,110.425 C 472.429,105.717 465.103,98.1307 462.488,93.16 C 456.732,82.696 452.809,69.0933 450.977,57.06 C 450.716,53.3973 448.1,42.4107 450.977,39.7933 C 454.64,36.132 462.488,42.6707 465.365,45.0253 C 479.753,57.06 488.909,67 507.744,72.756 C 517.424,75.8947 527.101,77.7253 537.567,77.464 C 551.693,77.464 565.557,73.0173 579.945,73.0173 C 594.333,72.756 611.337,74.5867 625.464,77.9867 C 650.055,83.7427 656.856,89.236 683.539,81.6507 C 705.775,75.372 713.099,68.0467 730.627,53.6573 C 733.504,51.304 742.66,42.1493 746.323,46.8573 C 748.939,50.2587 744.753,62.8147 743.445,66.4773 C 738.736,79.8187 731.412,92.1133 722.256,102.577 C 719.64,105.717 708.391,116.181 707.605,119.059 C 706.821,121.675 711.269,129.784 712.313,132.4 C 716.237,142.341 719.377,151.757 719.377,162.221 C 719.64,175.825 719.901,185.504 715.716,198.323 C 714.409,201.984 710.569,215.621 707.605,217.943 C 705.089,219.915 698.143,220.512 697.061,216.392 Z "/>
		<path id="dp_path118" fill="none" stroke="black" stroke-width="2" stroke-linejoin="round" stroke-linecap="round" d="M 475.405,202.424 C 477.052,204.985 479.055,208.359 481.444,210.025M 465.965,176.071 C 467.857,185.939 470.088,194.469 475.405,202.424M 468.697,133.261 C 464.337,146.717 463.535,162.344 465.965,176.071M 477.632,106.921 C 478.227,110.165 470.056,128.325 468.697,133.261M 467.893,95.188 C 470.857,98.9173 476.921,102.539 477.632,106.921M 458.353,73.6427 C 460.668,81.268 463.001,89.1347 467.893,95.188M 453.353,52.5653 C 454.524,59.7853 456.163,67.0733 458.353,73.6427M 454.709,45.1573 C 451.419,44.328 453.109,51.1893 453.353,52.5653M 476.852,62.4613 C 472.521,59.7133 457.427,45.4333 454.709,45.1573M 527.093,78.9627 C 509.235,78.6493 491.125,72.3 476.852,62.4613M 559.513,77.064 C 548.167,78.6907 538.169,79.26 527.093,78.9627M 585.453,74.3373 C 577.076,73.7893 567.62,75.9787 559.513,77.064M 624.353,80.128 C 611.392,77.1093 598.425,75.7 585.453,74.3373M 658.391,87.2867 C 646.225,87.2813 635.699,82.8693 624.353,80.128M 720.001,69.7653 C 701.945,82.304 679.759,87.836 658.391,87.2867M 734.329,57.9733 C 729.457,61.808 724.877,66.2053 720.001,69.7653M 740.815,54.9587 C 739.149,53.9387 735.68,57.1533 734.329,57.9733M 737.821,70.636 C 738.64,68.7053 742.945,56.1813 740.815,54.9587M 716.343,104.372 C 725.88,94.944 732.581,83.3307 737.821,70.636M 702.709,120.605 C 702.513,114.18 711.823,108.841 716.343,104.372M 711.037,140.015 C 709.611,135.849 702.885,123.395 702.709,120.605M 710.997,199.293 C 717.889,178.759 718.339,160.264 711.037,140.015M 699.824,218.241 C 705.121,214.307 708.251,207.736 710.997,199.293"/>
		<path id="dp_path119" fill="#ffaf13" fill-rule="evenodd" stroke="black" stroke-width="2" stroke-linejoin="round" stroke-linecap="round" d="M 584.671,170.717 C 583.724,174.893 582.441,180.555 580.475,184.359 C 578.017,189.113 573.793,195.233 569.485,198.409 C 561.147,204.556 547.057,210.605 536.763,209.444 C 521.081,207.676 501.447,198.195 493.077,180.145 C 480.257,152.939 498.569,118.408 528.915,113.175 C 550.627,109.513 572.949,119.411 582.544,139.335 C 584.467,143.772 586.093,151.927 586.775,156.575 C 586.576,160.041 585.62,166.533 584.671,170.717 Z "/>
		<path id="dp_path120" fill="#ffaf13" fill-rule="evenodd" stroke="black" stroke-width="2" stroke-linejoin="round" stroke-linecap="round" d="M 597.632,157.901 C 597.717,154.171 598.444,148.693 599.547,145.613 C 604.989,131.881 620.999,120.5 635.648,117.884 C 677.765,110.56 710.725,156.601 685.352,192.701 C 680.904,199.501 676.98,202.641 670.179,206.828 C 663.377,211.013 656.013,212.847 648.204,214.153 C 641.273,215.129 623.641,211.289 617.743,206.381 C 614.064,202.969 608.02,196.524 605.168,191.395 C 602.596,186.769 600.751,179.821 599.603,174.655 C 598.505,169.715 597.516,162.96 597.632,157.901 Z "/>
		<path id="dp_path121" fill="black" fill-rule="evenodd" stroke="black" stroke-width="2" stroke-linejoin="round" stroke-linecap="round" d="M 606.311,204.695 C 610.472,209.293 617.412,214.277 623.091,216.768 C 628.813,219.277 637.48,220.692 643.496,220.953 C 658.145,221.739 676.72,214.676 686.66,203.689 C 709.419,178.575 704.709,137.765 676.457,119.193 C 663.637,110.821 653.175,111.083 638.787,111.345 C 627.015,111.345 612.625,117.361 604.256,125.471 C 600.593,129.133 597.977,133.579 595.1,137.765 C 594.837,138.549 593.269,141.428 592.484,141.428 C 591.437,141.428 589.081,135.673 588.821,134.627 C 585.683,128.871 580.712,122.593 575.741,118.408 C 561.877,107.159 541.472,103.757 524.207,107.157 C 479.473,115.529 466.653,179.621 503.801,205.257 C 514.004,212.584 528.915,217.029 541.472,216.245 C 547.488,215.983 554.525,214.735 560.307,212.059 C 562.855,210.921 570.216,207.811 573.729,204.899 C 578.289,201.12 582.889,194.505 585.921,189.376 C 588.404,185.175 590.363,180.204 592.317,174.529 C 593.487,179.127 595.131,184.589 596.952,188.665 C 599.224,193.749 602.575,200.565 606.311,204.695 Z "/>
		<path id="dp_path122" fill="none" stroke="#f8f8f8" stroke-width="1" stroke-linejoin="round" d="M 599.603,174.655 C 598.505,169.715 597.516,162.96 597.632,157.901"/>
		<path id="dp_path123" fill="none" stroke="#f8f8f8" stroke-width="1" stroke-linejoin="round" d="M 597.632,157.901 C 597.717,154.171 598.444,148.693 599.547,145.613"/>
		<path id="dp_path124" fill="none" stroke="#f8f8f8" stroke-width="1" stroke-linejoin="round" d="M 599.547,145.613 C 604.989,131.881 620.999,120.5 635.648,117.884"/>
		<path id="dp_path125" fill="none" stroke="#f8f8f8" stroke-width="1" stroke-linejoin="round" d="M 635.648,117.884 C 677.765,110.56 710.725,156.601 685.352,192.701"/>
		<path id="dp_path126" fill="none" stroke="#f8f8f8" stroke-width="1" stroke-linejoin="round" d="M 685.352,192.701 C 680.904,199.501 676.98,202.641 670.179,206.828"/>
		<path id="dp_path127" fill="none" stroke="#f8f8f8" stroke-width="1" stroke-linejoin="round" d="M 670.179,206.828 C 663.377,211.013 656.013,212.847 648.204,214.153"/>
		<path id="dp_path128" fill="none" stroke="#f8f8f8" stroke-width="1" stroke-linejoin="round" d="M 648.204,214.153 C 641.273,215.129 623.641,211.289 617.743,206.381"/>
		<path id="dp_path129" fill="none" stroke="#f8f8f8" stroke-width="1" stroke-linejoin="round" d="M 617.743,206.381 C 614.064,202.969 608.02,196.524 605.168,191.395"/>
		<path id="dp_path130" fill="none" stroke="#f8f8f8" stroke-width="1" stroke-linejoin="round" d="M 605.168,191.395 C 602.596,186.769 600.751,179.821 599.603,174.655"/>
		<path id="dp_path131" fill="#f8f8f8" fill-rule="evenodd" stroke="black" stroke-width="2" stroke-linejoin="round" stroke-linecap="round" d="M 643.385,161.792 C 643.385,161.791 644.075,157.113 649.267,152.159 C 630.405,143.973 620.661,163.373 628.323,176.744 C 631.639,182.531 641.713,183.628 647.941,180.929 C 661.271,175.153 659.201,158.255 655.268,155.816 C 647.685,157.721 643.385,161.792 643.385,161.792 Z M 599.603,174.655 C 598.505,169.715 597.516,162.96 597.632,157.901 C 597.717,154.171 598.444,148.693 599.547,145.613 C 604.989,131.881 620.999,120.5 635.648,117.884 C 677.765,110.56 710.725,156.601 685.352,192.701 C 680.904,199.501 676.98,202.641 670.179,206.828 C 663.377,211.013 656.013,212.847 648.204,214.153 C 641.273,215.129 623.641,211.289 617.743,206.381 C 614.064,202.969 608.02,196.524 605.168,191.395 C 602.596,186.769 600.751,179.821 599.603,174.655 Z "/>
		<path id="dp_path132" fill="none" stroke="#f8f8f8" stroke-width="1" stroke-linejoin="round" d="M 586.775,156.575 C 586.576,160.041 585.62,166.533 584.671,170.717"/>
		<path id="dp_path133" fill="none" stroke="#f8f8f8" stroke-width="1" stroke-linejoin="round" d="M 584.671,170.717 C 583.724,174.893 582.441,180.555 580.475,184.359"/>
		<path id="dp_path134" fill="none" stroke="#f8f8f8" stroke-width="1" stroke-linejoin="round" d="M 580.475,184.359 C 578.017,189.113 573.793,195.233 569.485,198.409"/>
		<path id="dp_path135" fill="none" stroke="#f8f8f8" stroke-width="1" stroke-linejoin="round" d="M 569.485,198.409 C 561.147,204.556 547.057,210.605 536.763,209.444"/>
		<path id="dp_path136" fill="none" stroke="#f8f8f8" stroke-width="1" stroke-linejoin="round" d="M 536.763,209.444 C 521.081,207.676 501.447,198.195 493.077,180.145"/>
		<path id="dp_path137" fill="none" stroke="#f8f8f8" stroke-width="1" stroke-linejoin="round" d="M 493.077,180.145 C 480.257,152.939 498.569,118.408 528.915,113.175"/>
		<path id="dp_path138" fill="none" stroke="#f8f8f8" stroke-width="1" stroke-linejoin="round" d="M 528.915,113.175 C 550.627,109.513 572.949,119.411 582.544,139.335"/>
		<path id="dp_path139" fill="none" stroke="#f8f8f8" stroke-width="1" stroke-linejoin="round" d="M 582.544,139.335 C 584.467,143.772 586.093,151.927 586.775,156.575"/>
		<path id="dp_path140" fill="#f8f8f8" fill-rule="evenodd" stroke="black" stroke-width="2" stroke-linejoin="round" stroke-linecap="round" d="M 536.093,157.632 C 536.093,157.631 537.927,152.901 542.543,147.117 C 520.533,142.049 514.823,158.343 521.852,172.033 C 524.573,177.335 533.096,179.552 541.209,176.483 C 551.577,172.561 554.877,152.028 548.273,150.321 C 542.216,152.131 536.093,157.631 536.093,157.632 Z M 586.775,156.575 C 586.576,160.041 585.62,166.533 584.671,170.717 C 583.724,174.893 582.441,180.555 580.475,184.359 C 578.017,189.113 573.793,195.233 569.485,198.409 C 561.147,204.556 547.057,210.605 536.763,209.444 C 521.081,207.676 501.447,198.195 493.077,180.145 C 480.257,152.939 498.569,118.408 528.915,113.175 C 550.627,109.513 572.949,119.411 582.544,139.335 C 584.467,143.772 586.093,151.927 586.775,156.575 Z "/>
		<path id="dp_path141" fill="black" fill-rule="evenodd" stroke="none" stroke-width="0" d="M 570.009,194.4 C 568.991,200.065 570.581,213.249 572.013,217.917 C 575.852,230.441 582.98,236.233 595.556,233.351 C 602.107,231.779 605.82,225.608 608.375,219.487 C 610.301,214.869 612.447,208.183 611.097,198.639 C 598.491,201.876 603.493,211.421 600.784,217.201 C 600.705,218.449 599.665,220.512 599.217,221.056 C 596.72,225.236 592.425,228.123 587.708,226.288 C 584.301,224.977 581.893,221.092 580.121,218.179 C 579.883,217.713 579.343,216.443 579.367,215.649 C 577.023,209.073 581.657,196.157 570.009,194.4 Z "/>
		<path id="dp_path142" fill="#ffaf13" fill-rule="evenodd" stroke="black" stroke-width="2" stroke-linejoin="round" stroke-linecap="round" d="M 589.688,230.265 C 578.215,230.961 573.833,211.597 574.404,200.52 C 584.983,205.619 598.181,205.588 607.041,203.867 C 607.685,214.261 601.491,231.229 589.688,230.265 Z "/>
		<path id="dp_path143" fill="black" fill-rule="evenodd" stroke="none" stroke-width="0" d="M 584.617,163.445 C 573.307,168.727 567.943,186.021 567.253,194.92 C 582.131,209.513 590.229,227.983 590.231,227.987 C 590.233,227.983 599.397,210.327 615.084,195.565 C 614.848,189.199 613.939,184.421 610.761,176.181 C 609.689,173.399 604.805,166.391 600.797,163.719 C 596.309,160.727 589.433,161.196 584.617,163.445 Z "/>
		<path id="dp_path144" fill="#ffaf13" fill-rule="evenodd" stroke="black" stroke-width="2" stroke-linejoin="round" stroke-linecap="round" d="M 590.129,166.803 C 601.639,164.971 610.368,184.553 610.011,194.271 C 602.347,201.893 596.887,208.755 590.377,218.008 C 583.481,205.74 579.999,202.687 573.387,195.84 C 573.047,186.477 580.189,168.373 590.129,166.803 Z "/>
	</g>
</svg>