<svg width="136" height="154" viewBox="0 0 136 154" fill="none" xmlns="http://www.w3.org/2000/svg">
<path d="M33.4645 142.543C35.4171 144.496 38.5829 144.496 40.5355 142.543L72.3553 110.723C74.308 108.771 74.308 105.605 72.3553 103.652C70.4027 101.7 67.2369 101.7 65.2843 103.652L37 131.936L8.71573 103.652C6.76311 101.7 3.59728 101.7 1.64466 103.652C-0.307961 105.605 -0.307961 108.771 1.64466 110.723L33.4645 142.543ZM32 5.99246L32 139.007H42L42 5.99246L32 5.99246Z" fill="black"/>
<g filter="url(#filter0_d_10_23)">
<path d="M97.0682 62H86.5227L102.591 15.4545H115.273L131.318 62H120.773L109.114 26.0909H108.75L97.0682 62ZM96.4091 43.7045H121.318V51.3864H96.4091V43.7045ZM88.5455 139V133.159L111.773 100.568H88.5V92.4545H124.136V98.2955L100.886 130.886H124.182V139H88.5455Z" fill="black"/>
</g>
<defs>
<filter id="filter0_d_10_23" x="82.5227" y="15.4545" width="52.7955" height="131.545" filterUnits="userSpaceOnUse" color-interpolation-filters="sRGB">
<feFlood flood-opacity="0" result="BackgroundImageFix"/>
<feColorMatrix in="SourceAlpha" type="matrix" values="0 0 0 0 0 0 0 0 0 0 0 0 0 0 0 0 0 0 127 0" result="hardAlpha"/>
<feOffset dy="4"/>
<feGaussianBlur stdDeviation="2"/>
<feComposite in2="hardAlpha" operator="out"/>
<feColorMatrix type="matrix" values="0 0 0 0 0 0 0 0 0 0 0 0 0 0 0 0 0 0 0.25 0"/>
<feBlend mode="normal" in2="BackgroundImageFix" result="effect1_dropShadow_10_23"/>
<feBlend mode="normal" in="SourceGraphic" in2="effect1_dropShadow_10_23" result="shape"/>
</filter>
</defs>
</svg>
